# xmcd
#
# Track frame offsets:
#	183
#	14325
#	24020
#	43783
#	56183
#	65713
#	76798
#	87985
#	102780
#	126828
#	150665
#	166370
#	181803
#	199380
#	219545
#	229833
#
# Disc length: 3415 seconds
#
# Revision: 1
# Processed by: cddbd v1.5.1PL2 Copyright (c) Steve Scherf et al.
# Submitted via: EasyCDDAExtractor 6.0.0.1
#
DISCID=d20d5510
DTITLE=Glen Campbell - Country Music CM009
DYEAR=1999
DGENRE=Country
TTITLE0=Rhinestone Cowboy # 1 ('75)
TTITLE1=Gentle On My Mind # 30 ('67)
TTITLE2=Wichita Lineman # 1 ('68)
TTITLE3=By The Time I Get To Phoenix # 2 ('67)
TTITLE4=Dreams Of The Everyday Housewife # 3 ('68)
TTITLE5=Heartache Number Three
TTITLE6=It's Only Make Believe # 3 ('70)
TTITLE7=Crying
TTITLE8=Bluegrass
TTITLE9=Milk Cow Blues
TTITLE10=Rollin' (In My Sweet Babies Arms)
TTITLE11=I'm So Lonesome I Could Cry
TTITLE12=Southern Nights # 1 ('77)
TTITLE13=Amazing Grace
TTITLE14=Try A Little Kindness # 2 ('69)
TTITLE15=Mull Of Kintyre
EXTD=
EXTT0=
EXTT1=
EXTT2=
EXTT3=
EXTT4=
EXTT5=
EXTT6=
EXTT7=
EXTT8=
EXTT9=
EXTT10=
EXTT11=
EXTT12=
EXTT13=
EXTT14=
EXTT15=
PLAYORDER=
